<svg height="64" viewBox="0 0 128 128" width="64" xmlns="http://www.w3.org/2000/svg" xmlns:xlink="http://www.w3.org/1999/xlink"><linearGradient id="a" gradientUnits="userSpaceOnUse" x1="0" x2="128" y1="128" y2="0"><stop offset="0" stop-color="#333"/><stop offset="1" stop-color="#5d5d5d"/></linearGradient><path d="m25.829471 11.96339c-7.587021 0-13.866081 6.279061-13.866081 13.866082v76.341058c0 7.58702 6.27906 13.86608 13.866081 13.86608h76.341059c7.58702 0 13.86608-6.27906 13.86608-13.86608v-76.341058c0-7.587021-6.27906-13.866082-13.86608-13.866082h-76.341059zm0 11.175648h76.341059c1.58902 0 2.69043 1.101414 2.69043 2.690434v76.341058c0 1.58902-1.10141 2.69043-2.69043 2.69043h-76.341059c-1.589016 0-2.690432-1.10141-2.690432-2.69043v-76.341058c0-1.58902 1.101416-2.690434 2.690432-2.690434zm75.358009 3.673476-35.441284 1.396957 11.977598 11.977609-12.469115 12.443246 10.114995 10.114995 12.443246-12.469115 11.977609 11.977598zm-48.557154 38.442165-12.443246 12.469115-11.977609-11.977598-1.396954 35.441284 35.441287-1.396951-11.977598-11.977609 12.469115-12.443246z" fill="url(#a)"/></svg>