<?xml version="1.0" encoding="utf-8"?>
<svg viewBox="27 0.95 151.3 188.517" xmlns="http://www.w3.org/2000/svg">
  <defs>
    <clipPath id="_clipPath_kYewq8EMmQEAuIGmQwRDFvZesbfrIsG8">
      <rect x="27" y="0.95" width="43" height="90.504"/>
    </clipPath>
    <clipPath id="_clipPath_Ul6o4TsoAz5dDDuUd8deu3qtkjZXaWni">
      <rect x="65" y="35.592" width="129" height="46.509"/>
    </clipPath>
    <clipPath id="_clipPath_4fPIDQXCPLu00K6OwwAaWZYMyv6rrhxb">
      <rect x="0" y="0" width="31" height="64.107" transform="matrix(1,0,0,1,36,54.847)"/>
    </clipPath>
    <clipPath id="_clipPath_bZtz63wWcWQQXMa9zj3St2g8DtJZzPZf">
      <rect x="65" y="68.381" width="49" height="46.509"/>
    </clipPath>
    <clipPath id="_clipPath_ygCADJD3sZ23rJgFEET8Q0tBPWiCK80f">
      <rect x="34" y="89.796" width="33" height="64.107"/>
    </clipPath>
    <clipPath id="_clipPath_nKqSBYARagvygzs5m2xqNEX79Taeqd6g">
      <rect x="65" y="102.17" width="122" height="46.509"/>
    </clipPath>
    <clipPath id="_clipPath_S7pxjLZmP69jmSh1DQRi62JdPW4pEXUQ">
      <rect x="66" y="125.682" width="35" height="64.107"/>
    </clipPath>
    <clipPath id="_clipPath_DHaOtfSesHTomLT5rTqRBeWoxMQs6cOl">
      <rect x="96" y="131" width="32" height="57.822"/>
    </clipPath>
    <style>@import url(https://fonts.googleapis.com/css2?family=Merriweather%3Aital%2Cwght%400%2C300%3B0%2C400%3B0%2C700%3B0%2C900%3B1%2C300%3B1%2C400%3B1%2C700%3B1%2C900&amp;display=swap);</style>
    <style>@import url(https://fonts.googleapis.com/css2?family=Merriweather+Sans%3Aital%2Cwght%400%2C300..800%3B1%2C300..800&amp;display=swap);</style>
  </defs>
  <text style="fill: rgb(207, 82, 10); font-family: Merriweather; font-size: 72px; font-variant: none; white-space: pre; clip-path: url('#_clipPath_kYewq8EMmQEAuIGmQwRDFvZesbfrIsG8');" x="27" y="71.798" clip-path="url(#_clipPath_2MxNjtfxNTAv2VSXgbP7f1hXtyuvW1BB)" transform="matrix(1, 0, 0, 1, 0, -3.552713678800501e-15)">a</text>
  <text style="font-family: 'Merriweather Sans'; font-size: 37px; font-variant: none; letter-spacing: -1px; white-space: pre; clip-path: url('#_clipPath_Ul6o4TsoAz5dDDuUd8deu3qtkjZXaWni');" x="65" y="72" clip-path="url(#_clipPath_2MxNjtfxNTAv2VSXgbP7f1hXtyuvW1BB)" transform="matrix(1, 0, 0, 1, 0, -3.552713678800501e-15)">UTISM</text>
  <text style="fill: rgb(207, 82, 10); font-family: Merriweather; font-size: 51px; font-variant: none; white-space: pre; clip-path: url('#_clipPath_4fPIDQXCPLu00K6OwwAaWZYMyv6rrhxb');" x="36" y="105.031" clip-path="url(#_clipPath_2MxNjtfxNTAv2VSXgbP7f1hXtyuvW1BB)" transform="matrix(1, 0, 0, 1, 0, -3.552713678800501e-15)">a</text>
  <text style="font-family: 'Merriweather Sans'; font-size: 37px; font-variant: none; letter-spacing: -1px; white-space: pre; clip-path: url('#_clipPath_bZtz63wWcWQQXMa9zj3St2g8DtJZzPZf');" x="65" y="104.789" clip-path="url(#_clipPath_2MxNjtfxNTAv2VSXgbP7f1hXtyuvW1BB)" transform="matrix(1, 0, 0, 1, 0, -3.552713678800501e-15)">LL</text>
  <text style="fill: rgb(207, 82, 10); font-family: Merriweather; font-size: 51px; font-variant: none; white-space: pre; clip-path: url('#_clipPath_ygCADJD3sZ23rJgFEET8Q0tBPWiCK80f');" x="34" y="139.98" clip-path="url(#_clipPath_2MxNjtfxNTAv2VSXgbP7f1hXtyuvW1BB)" transform="matrix(1, 0, 0, 1, 0, -3.552713678800501e-15)">g</text>
  <text style="font-family: 'Merriweather Sans'; font-size: 37px; font-variant: none; letter-spacing: -1px; white-space: pre; clip-path: url('#_clipPath_nKqSBYARagvygzs5m2xqNEX79Taeqd6g');" x="65" y="138.578" clip-path="url(#_clipPath_2MxNjtfxNTAv2VSXgbP7f1hXtyuvW1BB)" transform="matrix(1, 0, 0, 1, 0, -3.552713678800501e-15)">ROWN</text>
  <text style="fill: rgb(207, 82, 10); font-family: Merriweather; font-size: 51px; font-variant: none; white-space: pre; clip-path: url('#_clipPath_S7pxjLZmP69jmSh1DQRi62JdPW4pEXUQ');" x="66" y="175.867" clip-path="url(#_clipPath_2MxNjtfxNTAv2VSXgbP7f1hXtyuvW1BB)" transform="matrix(1, 0, 0, 1, 0, -3.552713678800501e-15)">u</text>
  <text style="font-family: 'Merriweather Sans'; font-size: 47px; font-variant: none; white-space: pre; clip-path: url('#_clipPath_DHaOtfSesHTomLT5rTqRBeWoxMQs6cOl');" x="96" y="176.264" clip-path="url(#_clipPath_2MxNjtfxNTAv2VSXgbP7f1hXtyuvW1BB)" transform="matrix(1, 0, 0, 1, 0, -3.552713678800501e-15)">P</text>
</svg>